<svg width="216" height="74" viewBox="0 0 216 74" fill="none" xmlns="http://www.w3.org/2000/svg">
<path d="M59.5182 36.6265L45.0202 66.3856H38.1527H14.9617L8.43995 53.4137L0 36.6265L14.498 6.86743H21.3655H45.0202L51.3398 19.8393L59.5182 36.6265Z" fill="white"/>
<path d="M38.1527 53.4138L46.5463 36.6266L38.1527 19.8394L51.8876 36.6266L38.1527 53.4138Z" fill="black"/>
<path d="M19.0763 22.8916L21.3655 19.8394L12.9719 36.6265L21.3655 53.4137L8.39355 36.6265L19.0763 22.8916Z" fill="black"/>
<path d="M81.3218 36.313C80.1594 36.313 79.2453 35.9851 78.5796 35.3293C77.9139 34.6637 77.5811 33.6751 77.5811 32.3636V12.9593H80.0103V32.1996C80.0103 32.8852 80.1395 33.382 80.3978 33.69C80.6661 33.988 81.0784 34.1371 81.6348 34.1371C81.9726 34.1371 82.3154 34.0824 82.6631 33.9731L82.8718 34.0328L83.1549 35.9404C82.9761 36.0596 82.7178 36.149 82.38 36.2086C82.0521 36.2782 81.6994 36.313 81.3218 36.313ZM99.3847 28.3397H88.088C88.1575 30.3367 88.6344 31.8022 89.5187 32.7362C90.4129 33.6701 91.635 34.1371 93.1849 34.1371C94.3573 34.1371 95.3012 33.9284 96.0166 33.5111C96.7319 33.0938 97.2933 32.4381 97.7007 31.5439H98.0136L99.5934 32.4828C99.1165 33.6751 98.3514 34.614 97.2983 35.2995C96.255 35.9752 94.8839 36.313 93.1849 36.313C91.5952 36.313 90.2291 36 89.0865 35.3741C87.9439 34.7481 87.0646 33.7993 86.4486 32.5275C85.8326 31.2558 85.5246 29.676 85.5246 27.7882C85.5246 25.9203 85.8475 24.3455 86.4933 23.0639C87.1491 21.7822 88.0383 20.8283 89.161 20.2024C90.2937 19.5665 91.5853 19.2486 93.0359 19.2486C95.1422 19.2486 96.7866 19.8447 97.9689 21.037C99.1513 22.2193 99.7474 23.9779 99.7573 26.3128C99.7573 27.2269 99.7375 27.8429 99.6977 28.1608L99.3847 28.3397ZM97.3579 26.3128C97.3181 24.5641 96.9307 23.2924 96.1954 22.4975C95.4602 21.7027 94.407 21.3053 93.0359 21.3053C91.5952 21.3053 90.4626 21.7076 89.6379 22.5124C88.8232 23.3073 88.3264 24.5741 88.1476 26.3128H97.3579ZM111.65 36H108.312L102.052 19.5616H104.675L109.847 33.228H110.19L115.316 19.5616H117.88L111.65 36ZM122.768 16.3871C122.252 16.3871 121.829 16.2282 121.501 15.9102C121.183 15.5823 121.024 15.17 121.024 14.6732C121.024 14.1765 121.183 13.7691 121.501 13.4512C121.829 13.1233 122.252 12.9593 122.768 12.9593C123.285 12.9593 123.702 13.1233 124.02 13.4512C124.348 13.7691 124.512 14.1765 124.512 14.6732C124.512 15.17 124.348 15.5823 124.02 15.9102C123.702 16.2282 123.285 16.3871 122.768 16.3871ZM121.546 36V19.5616H123.975V36H121.546ZM137.97 33.3919L138.745 35.1356C138.357 35.5231 137.845 35.8162 137.21 36.0149C136.584 36.2136 135.903 36.313 135.168 36.313C132.028 36.313 130.458 34.7233 130.458 31.5439V21.5437H127.597V19.5467H130.458V16.0742L132.888 15.6718V19.5467H138.178V21.5437H132.888V31.3054C132.888 33.1932 133.707 34.1371 135.347 34.1371C136.241 34.1371 137.011 33.8887 137.657 33.3919H137.97ZM146.152 36.313C144.532 36.313 143.265 35.8907 142.351 35.0462C141.447 34.2017 140.995 32.9945 140.995 31.4247C140.995 30.451 141.194 29.6313 141.591 28.9656C141.999 28.29 142.624 27.7435 143.469 27.3262C144.314 26.899 145.416 26.5711 146.778 26.3426C147.97 26.1439 148.874 25.9203 149.49 25.6719C150.116 25.4236 150.533 25.1454 150.742 24.8374C150.96 24.5294 151.07 24.1419 151.07 23.6749C151.07 22.9297 150.811 22.3584 150.295 21.961C149.788 21.5636 148.968 21.3649 147.836 21.3649C146.773 21.3649 145.858 21.5735 145.093 21.9908C144.338 22.3982 143.643 23.0092 143.007 23.8239H142.709L141.517 22.1398C142.212 21.2556 143.096 20.5551 144.169 20.0385C145.242 19.5119 146.465 19.2486 147.836 19.2486C149.773 19.2486 151.199 19.6758 152.113 20.5303C153.037 21.3748 153.499 22.5472 153.499 24.0475V32.766C153.499 33.68 153.886 34.1371 154.661 34.1371C154.92 34.1371 155.168 34.0924 155.407 34.0029L155.615 34.0626L155.898 35.7466C155.72 35.8659 155.481 35.9553 155.183 36.0149C154.895 36.0845 154.597 36.1192 154.289 36.1192C153.385 36.1192 152.699 35.9205 152.232 35.5231C151.775 35.1257 151.482 34.5395 151.353 33.7645L151.04 33.7347C150.573 34.5991 149.942 35.2449 149.147 35.6721C148.352 36.0994 147.354 36.313 146.152 36.313ZM146.688 34.3755C147.602 34.3755 148.392 34.1669 149.058 33.7496C149.733 33.3224 150.25 32.7262 150.608 31.9612C150.965 31.1961 151.144 30.3119 151.144 29.3084V27.2219L150.861 27.1623C150.493 27.4206 150.046 27.6392 149.52 27.818C148.993 27.9869 148.258 28.1409 147.314 28.28C146.36 28.4092 145.6 28.6079 145.034 28.8762C144.477 29.1444 144.08 29.4872 143.842 29.9045C143.603 30.3119 143.484 30.8186 143.484 31.4247C143.484 32.3884 143.767 33.1236 144.333 33.6304C144.9 34.1271 145.685 34.3755 146.688 34.3755ZM167.3 33.3919L168.074 35.1356C167.687 35.5231 167.175 35.8162 166.539 36.0149C165.914 36.2136 165.233 36.313 164.498 36.313C161.358 36.313 159.788 34.7233 159.788 31.5439V21.5437H156.927V19.5467H159.788V16.0742L162.217 15.6718V19.5467H167.508V21.5437H162.217V31.3054C162.217 33.1932 163.037 34.1371 164.677 34.1371C165.571 34.1371 166.341 33.8887 166.987 33.3919H167.3ZM172.784 16.3871C172.267 16.3871 171.845 16.2282 171.517 15.9102C171.199 15.5823 171.04 15.17 171.04 14.6732C171.04 14.1765 171.199 13.7691 171.517 13.4512C171.845 13.1233 172.267 12.9593 172.784 12.9593C173.301 12.9593 173.718 13.1233 174.036 13.4512C174.364 13.7691 174.528 14.1765 174.528 14.6732C174.528 15.17 174.364 15.5823 174.036 15.9102C173.718 16.2282 173.301 16.3871 172.784 16.3871ZM171.562 36V19.5616H173.991V36H171.562ZM186.301 36.313C184.751 36.313 183.4 35.9851 182.248 35.3293C181.105 34.6736 180.221 33.7098 179.595 32.4381C178.979 31.1564 178.671 29.6064 178.671 27.7882C178.671 25.97 178.979 24.4201 179.595 23.1384C180.221 21.8567 181.105 20.888 182.248 20.2322C183.4 19.5765 184.751 19.2486 186.301 19.2486C187.851 19.2486 189.198 19.5765 190.34 20.2322C191.493 20.888 192.377 21.8567 192.993 23.1384C193.619 24.4201 193.932 25.97 193.932 27.7882C193.932 29.6064 193.619 31.1564 192.993 32.4381C192.377 33.7098 191.493 34.6736 190.34 35.3293C189.198 35.9851 187.851 36.313 186.301 36.313ZM186.301 34.1371C187.941 34.1371 189.193 33.6204 190.057 32.5871C190.931 31.5538 191.369 29.9542 191.369 27.7882C191.369 25.6123 190.931 24.0077 190.057 22.9744C189.193 21.9411 187.941 21.4245 186.301 21.4245C184.662 21.4245 183.405 21.9461 182.531 22.9893C181.656 24.0226 181.219 25.6223 181.219 27.7882C181.219 29.9542 181.656 31.5538 182.531 32.5871C183.405 33.6204 184.662 34.1371 186.301 34.1371ZM198.597 36V19.5616H200.907V22.1398L201.22 22.2144C201.766 21.2506 202.462 20.5154 203.306 20.0087C204.161 19.5019 205.199 19.2486 206.421 19.2486C208.398 19.2486 209.829 19.7553 210.713 20.7687C211.607 21.7722 212.054 23.3222 212.054 25.4186V36H209.625V25.4782C209.625 24.4846 209.496 23.6898 209.238 23.0937C208.989 22.4876 208.597 22.0504 208.06 21.7822C207.534 21.504 206.838 21.3649 205.974 21.3649C204.493 21.3649 203.296 21.8567 202.382 22.8403C201.478 23.814 201.026 25.3888 201.026 27.5647V36H198.597Z" fill="white"/>
<path d="M76.8209 57.029C76.5626 57.029 76.3515 56.9495 76.1875 56.7906C76.0286 56.6266 75.9491 56.4205 75.9491 56.1721C75.9491 55.9237 76.0286 55.72 76.1875 55.561C76.3515 55.3971 76.5626 55.3151 76.8209 55.3151C77.0793 55.3151 77.2879 55.3971 77.4469 55.561C77.6108 55.72 77.6928 55.9237 77.6928 56.1721C77.6928 56.4205 77.6108 56.6266 77.4469 56.7906C77.2879 56.9495 77.0793 57.029 76.8209 57.029ZM76.2099 66.8354V58.6162H77.4245V66.8354H76.2099ZM80.2934 66.8354V58.6162H81.4484V59.9054L81.6049 59.9426C81.8782 59.4608 82.2259 59.0931 82.6482 58.8398C83.0754 58.5864 83.5945 58.4597 84.2056 58.4597C85.1942 58.4597 85.9095 58.7131 86.3517 59.2198C86.7988 59.7216 87.0223 60.4965 87.0223 61.5447V66.8354H85.8077V61.5746C85.8077 61.0778 85.7431 60.6803 85.6139 60.3823C85.4897 60.0792 85.2935 59.8607 85.0253 59.7265C84.762 59.5874 84.4142 59.5179 83.982 59.5179C83.2418 59.5179 82.6432 59.7638 82.1862 60.2556C81.7341 60.7424 81.5081 61.5298 81.5081 62.6178V66.8354H80.2934ZM90.0999 66.8354V59.6073H88.6691V58.6088H90.0999C90.0104 58.2511 89.9657 57.9108 89.9657 57.5879C89.9657 57.0563 90.0775 56.6092 90.3011 56.2466C90.5296 55.879 90.845 55.6057 91.2474 55.4269C91.6498 55.2481 92.1143 55.1586 92.6409 55.1586C93.4606 55.1586 94.089 55.335 94.5262 55.6877L94.0567 56.5447L93.9002 56.5745C93.5773 56.3161 93.1575 56.187 92.6409 56.187C92.159 56.187 91.7939 56.3112 91.5455 56.5596C91.3021 56.8079 91.1804 57.1607 91.1804 57.6177C91.1804 57.9009 91.2251 58.2312 91.3145 58.6088H93.93V59.6073H91.3145V66.8354H90.0999ZM98.7364 66.9919C97.9614 66.9919 97.2858 66.828 96.7095 66.5001C96.1382 66.1722 95.6961 65.6904 95.3831 65.0545C95.0751 64.4136 94.9211 63.6387 94.9211 62.7296C94.9211 61.8205 95.0751 61.0455 95.3831 60.4046C95.6961 59.7638 96.1382 59.2794 96.7095 58.9516C97.2858 58.6237 97.9614 58.4597 98.7364 58.4597C99.5114 58.4597 100.184 58.6237 100.756 58.9516C101.332 59.2794 101.774 59.7638 102.082 60.4046C102.395 61.0455 102.552 61.8205 102.552 62.7296C102.552 63.6387 102.395 64.4136 102.082 65.0545C101.774 65.6904 101.332 66.1722 100.756 66.5001C100.184 66.828 99.5114 66.9919 98.7364 66.9919ZM98.7364 65.904C99.5561 65.904 100.182 65.6457 100.614 65.129C101.051 64.6124 101.27 63.8125 101.27 62.7296C101.27 61.6416 101.051 60.8393 100.614 60.3227C100.182 59.806 99.5561 59.5477 98.7364 59.5477C97.9167 59.5477 97.2883 59.8085 96.8511 60.3301C96.4139 60.8468 96.1954 61.6466 96.1954 62.7296C96.1954 63.8125 96.4139 64.6124 96.8511 65.129C97.2883 65.6457 97.9167 65.904 98.7364 65.904ZM109.012 65.5314L109.4 66.4033C109.206 66.597 108.95 66.7435 108.632 66.8429C108.319 66.9423 107.979 66.9919 107.611 66.9919C106.042 66.9919 105.257 66.1971 105.257 64.6074V59.6073H103.826V58.6088H105.257V56.8725L106.471 56.6713V58.6088H109.117V59.6073H106.471V64.4882C106.471 65.432 106.881 65.904 107.701 65.904C108.148 65.904 108.533 65.7798 108.856 65.5314H109.012ZM117.44 63.0053H111.792C111.827 64.0038 112.065 64.7366 112.507 65.2035C112.954 65.6705 113.565 65.904 114.34 65.904C114.926 65.904 115.398 65.7997 115.756 65.591C116.114 65.3824 116.394 65.0545 116.598 64.6074H116.755L117.544 65.0768C117.306 65.673 116.923 66.1424 116.397 66.4852C115.875 66.823 115.19 66.9919 114.34 66.9919C113.545 66.9919 112.862 66.8354 112.291 66.5225C111.72 66.2095 111.28 65.7351 110.972 65.0992C110.664 64.4633 110.51 63.6734 110.51 62.7296C110.51 61.7956 110.672 61.0082 110.994 60.3674C111.322 59.7265 111.767 59.2496 112.328 58.9366C112.895 58.6187 113.54 58.4597 114.266 58.4597C115.319 58.4597 116.141 58.7578 116.732 59.3539C117.323 59.9451 117.621 60.8244 117.626 61.9918C117.626 62.4489 117.617 62.7569 117.597 62.9159L117.44 63.0053ZM116.427 61.9918C116.407 61.1175 116.213 60.4816 115.845 60.0842C115.478 59.6868 114.951 59.4881 114.266 59.4881C113.545 59.4881 112.979 59.6893 112.567 60.0917C112.159 60.4891 111.911 61.1225 111.822 61.9918H116.427ZM123.089 66.9919C122.363 66.9919 121.712 66.828 121.136 66.5001C120.56 66.1673 120.105 65.6804 119.773 65.0396C119.44 64.3938 119.273 63.6238 119.273 62.7296C119.273 61.8304 119.44 61.0604 119.773 60.4195C120.105 59.7737 120.56 59.2869 121.136 58.959C121.712 58.6262 122.363 58.4597 123.089 58.4597C123.958 58.4597 124.648 58.6237 125.16 58.9516C125.677 59.2794 126.049 59.7166 126.278 60.2631L125.451 60.8592H125.302C125.078 60.4071 124.79 60.0768 124.437 59.8681C124.09 59.6545 123.64 59.5477 123.089 59.5477C122.582 59.5477 122.137 59.6669 121.755 59.9054C121.372 60.1438 121.074 60.5015 120.86 60.9784C120.652 61.4553 120.548 62.039 120.548 62.7296C120.548 63.4151 120.654 63.9964 120.868 64.4733C121.082 64.9452 121.377 65.3029 121.755 65.5463C122.137 65.7848 122.582 65.904 123.089 65.904C123.66 65.904 124.132 65.7748 124.504 65.5165C124.882 65.2582 125.177 64.8508 125.391 64.2944H125.548L126.345 64.7639C126.131 65.4544 125.749 65.9984 125.197 66.3958C124.651 66.7932 123.948 66.9919 123.089 66.9919ZM128.282 66.8354V55.3151H129.497V59.7861L129.653 59.8159C130.24 58.9118 131.087 58.4597 132.195 58.4597C133.183 58.4597 133.898 58.7131 134.341 59.2198C134.788 59.7216 135.011 60.4965 135.011 61.5447V66.8354H133.797V61.5746C133.797 61.0778 133.732 60.6803 133.603 60.3823C133.479 60.0792 133.282 59.8607 133.014 59.7265C132.751 59.5874 132.403 59.5179 131.971 59.5179C131.226 59.5179 130.627 59.7588 130.175 60.2407C129.723 60.7226 129.497 61.5149 129.497 62.6178V66.8354H128.282Z" fill="white"/>
</svg>
